<?xml version="1.0" encoding="utf-8"?>
<!-- Generator: Adobe Illustrator 12.0.1, SVG Export Plug-In  -->
<!DOCTYPE svg PUBLIC "-//W3C//DTD SVG 1.1//EN" "http://www.w3.org/Graphics/SVG/1.1/DTD/svg11.dtd" [
	<!ENTITY ns_flows "http://ns.adobe.com/Flows/1.0/">
	<!ENTITY ns_svg "http://www.w3.org/2000/svg">
	<!ENTITY ns_xlink "http://www.w3.org/1999/xlink">
]>
<svg  version="1.1" xmlns="&ns_svg;" xmlns:xlink="&ns_xlink;" xmlns:a="http://ns.adobe.com/AdobeSVGViewerExtensions/3.0/"
	 width="771" height="365" viewBox="0 0 771 365" enable-background="new 0 0 771 365" xml:space="preserve">
<defs>
</defs>
<rect fill="#FFFFFF" width="771" height="365"/>
<line fill="none" stroke="#E5E5E5" stroke-width="2" stroke-miterlimit="10" x1="742.982" y1="307.089" x2="174.366" y2="307.089"/>
<path fill="none" stroke="#E5E5E5" stroke-width="2" stroke-miterlimit="10" d="M742.957,152.77H172.266 M740.617,77.133H172
	 M740.617,230.089H172 M259.482,329.426V33.432 M303.214,328.944V33.432 M346.955,329.635V77.133 M390.696,328.944V33.432
	 M434.438,328.944V33.432 M478.169,328.944V33.432 M521.92,328.944V77.133 M565.651,329.635V77.133 M609.383,328.944V77.133
	 M653.134,328.944V77.133"/>
<polyline fill-rule="evenodd" clip-rule="evenodd" points="233.025,181.032 236.668,181.032 236.668,168.482 232.709,169.278 
	232.709,167.237 236.648,166.441 238.872,166.441 238.872,181.032 242.504,181.032 242.504,182.909 233.025,182.909 
	233.025,181.032 "/>
<path fill-rule="evenodd" clip-rule="evenodd" d="M281.348,167.911c-1.143,0-2.01,0.571-2.591,1.693
	c-0.571,1.122-0.857,2.816-0.857,5.081c0,2.266,0.286,3.959,0.857,5.081c0.582,1.123,1.449,1.694,2.591,1.694
	c1.153,0,2.021-0.571,2.592-1.694c0.582-1.122,0.867-2.815,0.867-5.081c0-2.265-0.286-3.959-0.867-5.081
	C283.369,168.482,282.501,167.911,281.348,167.911 M281.348,166.156c1.847,0,3.255,0.734,4.224,2.184
	c0.97,1.448,1.459,3.57,1.459,6.346s-0.489,4.897-1.459,6.347c-0.969,1.47-2.377,2.184-4.224,2.184
	c-1.847,0-3.255-0.714-4.234-2.184c-0.969-1.449-1.449-3.571-1.449-6.347s0.479-4.897,1.449-6.346
	C278.093,166.891,279.501,166.156,281.348,166.156"/>
<polyline fill-rule="evenodd" clip-rule="evenodd" points="320.508,181.032 324.141,181.032 324.141,168.482 320.192,169.278 
	320.192,167.237 324.12,166.441 326.345,166.441 326.345,181.032 329.987,181.032 329.987,182.909 320.508,182.909 320.508,181.032 
	"/>
<path fill-rule="evenodd" clip-rule="evenodd" d="M368.821,167.911c-1.143,0-2.01,0.571-2.582,1.693s-0.857,2.816-0.857,5.081
	c0,2.266,0.286,3.959,0.857,5.081c0.571,1.123,1.438,1.694,2.582,1.694c1.163,0,2.02-0.571,2.591-1.694
	c0.582-1.122,0.878-2.815,0.878-5.081c0-2.265-0.296-3.959-0.878-5.081C370.841,168.482,369.984,167.911,368.821,167.911
	 M368.821,166.156c1.847,0,3.255,0.734,4.224,2.184c0.979,1.448,1.469,3.57,1.469,6.346s-0.49,4.897-1.469,6.347
	c-0.969,1.47-2.377,2.184-4.224,2.184c-1.836,0-3.245-0.714-4.224-2.184c-0.969-1.449-1.459-3.571-1.459-6.347
	s0.49-4.897,1.459-6.346C365.576,166.891,366.984,166.156,368.821,166.156"/>
<path fill-rule="evenodd" clip-rule="evenodd" d="M412.562,167.911c-1.144,0-2,0.571-2.592,1.693
	c-0.571,1.122-0.857,2.816-0.857,5.081c0,2.266,0.286,3.959,0.857,5.081c0.592,1.123,1.448,1.694,2.592,1.694
	c1.163,0,2.02-0.571,2.591-1.694c0.571-1.122,0.878-2.815,0.878-5.081c0-2.265-0.307-3.959-0.878-5.081
	S413.726,167.911,412.562,167.911 M412.562,166.156c1.836,0,3.244,0.734,4.224,2.184c0.979,1.448,1.47,3.57,1.47,6.346
	s-0.49,4.897-1.47,6.347c-0.979,1.47-2.388,2.184-4.224,2.184c-1.837,0-3.255-0.714-4.225-2.184
	c-0.97-1.449-1.459-3.571-1.459-6.347s0.489-4.897,1.459-6.346C409.308,166.891,410.726,166.156,412.562,166.156"/>
<path fill-rule="evenodd" clip-rule="evenodd" d="M587.527,167.911c-1.143,0-2.021,0.571-2.592,1.693s-0.857,2.816-0.857,5.081
	c0,2.266,0.286,3.959,0.857,5.081c0.571,1.123,1.449,1.694,2.592,1.694s2-0.571,2.592-1.694c0.571-1.122,0.857-2.815,0.857-5.081
	c0-2.265-0.286-3.959-0.857-5.081C589.527,168.482,588.67,167.911,587.527,167.911 M587.527,166.156
	c1.837,0,3.244,0.734,4.204,2.184c0.979,1.448,1.469,3.57,1.469,6.346s-0.489,4.897-1.469,6.347c-0.96,1.47-2.367,2.184-4.204,2.184
	c-1.857,0-3.265-0.714-4.244-2.184c-0.959-1.449-1.449-3.571-1.449-6.347s0.49-4.897,1.449-6.346
	C584.263,166.891,585.67,166.156,587.527,166.156"/>
<path fill-rule="evenodd" clip-rule="evenodd" d="M631.259,167.911c-1.144,0-2,0.571-2.592,1.693
	c-0.571,1.122-0.857,2.816-0.857,5.081c0,2.266,0.286,3.959,0.857,5.081c0.592,1.123,1.448,1.694,2.592,1.694
	c1.163,0,2.02-0.571,2.591-1.694c0.572-1.122,0.878-2.815,0.878-5.081c0-2.265-0.306-3.959-0.878-5.081
	C633.278,168.482,632.422,167.911,631.259,167.911 M631.259,166.156c1.836,0,3.244,0.734,4.224,2.184
	c0.979,1.448,1.47,3.57,1.47,6.346s-0.49,4.897-1.47,6.347c-0.979,1.47-2.388,2.184-4.224,2.184c-1.837,0-3.245-0.714-4.225-2.184
	c-0.979-1.449-1.469-3.571-1.469-6.347s0.489-4.897,1.469-6.346C628.014,166.891,629.422,166.156,631.259,166.156"/>
<polyline fill-rule="evenodd" clip-rule="evenodd" points="451.723,181.032 455.354,181.032 455.354,168.482 451.416,169.278 
	451.416,167.237 455.334,166.441 457.559,166.441 457.559,181.032 461.211,181.032 461.211,182.909 451.723,182.909 
	451.723,181.032 "/>
<polyline fill-rule="evenodd" clip-rule="evenodd" points="495.474,181.032 499.105,181.032 499.105,168.482 495.147,169.278 
	495.147,167.237 499.086,166.441 501.31,166.441 501.31,181.032 504.942,181.032 504.942,182.909 495.474,182.909 495.474,181.032 
	"/>
<polyline fill-rule="evenodd" clip-rule="evenodd" points="539.205,181.032 542.837,181.032 542.837,168.482 538.878,169.278 
	538.878,167.237 542.816,166.441 545.041,166.441 545.041,181.032 548.674,181.032 548.674,182.909 539.205,182.909 
	539.205,181.032 "/>
<polyline fill-rule="evenodd" clip-rule="evenodd" points="670.419,181.032 674.051,181.032 674.051,168.482 670.092,169.278 
	670.092,167.237 674.03,166.441 676.255,166.441 676.255,181.032 679.887,181.032 679.887,182.909 670.419,182.909 670.419,181.032 
	"/>
<line fill="none" stroke="#ED3411" stroke-width="2" stroke-linecap="square" stroke-miterlimit="10" x1="215.741" y1="77.133" x2="193.866" y2="77.133"/>
<line fill="none" stroke="#ED3411" stroke-width="2" stroke-linecap="square" stroke-miterlimit="10" x1="215.741" y1="33.432" x2="215.741" y2="77.133"/>
<line fill="none" stroke="#ED3411" stroke-width="2" stroke-linecap="square" stroke-miterlimit="10" x1="237.607" y1="33.432" x2="215.741" y2="33.432"/>
<line fill="none" stroke="#ED3411" stroke-width="2" stroke-linecap="square" stroke-miterlimit="10" x1="237.607" y1="77.133" x2="237.607" y2="33.432"/>
<line fill="none" stroke="#ED3411" stroke-width="2" stroke-linecap="square" stroke-miterlimit="10" x1="259.482" y1="77.133" x2="237.607" y2="77.133"/>
<line fill="none" stroke="#ED3411" stroke-width="2" stroke-linecap="square" stroke-miterlimit="10" x1="259.482" y1="33.432" x2="259.482" y2="77.133"/>
<line fill="none" stroke="#ED3411" stroke-width="2" stroke-linecap="square" stroke-miterlimit="10" x1="281.348" y1="33.432" x2="259.482" y2="33.432"/>
<line fill="none" stroke="#ED3411" stroke-width="2" stroke-linecap="square" stroke-miterlimit="10" x1="281.348" y1="77.133" x2="281.348" y2="33.432"/>
<line fill="none" stroke="#ED3411" stroke-width="2" stroke-linecap="square" stroke-miterlimit="10" x1="303.214" y1="77.133" x2="281.348" y2="77.133"/>
<line fill="none" stroke="#ED3411" stroke-width="2" stroke-linecap="square" stroke-miterlimit="10" x1="303.214" y1="33.432" x2="303.214" y2="77.133"/>
<line fill="none" stroke="#ED3411" stroke-width="2" stroke-linecap="square" stroke-miterlimit="10" x1="325.09" y1="33.432" x2="303.214" y2="33.432"/>
<line fill="none" stroke="#ED3411" stroke-width="2" stroke-linecap="square" stroke-miterlimit="10" x1="325.09" y1="77.133" x2="325.09" y2="33.432"/>
<line fill="none" stroke="#ED3411" stroke-width="2" stroke-linecap="square" stroke-miterlimit="10" x1="346.955" y1="77.133" x2="325.09" y2="77.133"/>
<line fill="none" stroke="#ED3411" stroke-width="2" stroke-linecap="square" stroke-miterlimit="10" x1="346.955" y1="33.432" x2="346.955" y2="77.133"/>
<line fill="none" stroke="#ED3411" stroke-width="2" stroke-linecap="square" stroke-miterlimit="10" x1="368.831" y1="33.432" x2="346.955" y2="33.432"/>
<line fill="none" stroke="#ED3411" stroke-width="2" stroke-linecap="square" stroke-miterlimit="10" x1="368.831" y1="77.133" x2="368.831" y2="33.432"/>
<line fill="none" stroke="#ED3411" stroke-width="2" stroke-linecap="square" stroke-miterlimit="10" x1="390.696" y1="77.133" x2="368.831" y2="77.133"/>
<line fill="none" stroke="#ED3411" stroke-width="2" stroke-linecap="square" stroke-miterlimit="10" x1="390.696" y1="33.432" x2="390.696" y2="77.133"/>
<line fill="none" stroke="#ED3411" stroke-width="2" stroke-linecap="square" stroke-miterlimit="10" x1="412.562" y1="33.432" x2="390.696" y2="33.432"/>
<line fill="none" stroke="#ED3411" stroke-width="2" stroke-linecap="square" stroke-miterlimit="10" x1="412.562" y1="77.133" x2="412.562" y2="33.432"/>
<line fill="none" stroke="#ED3411" stroke-width="2" stroke-linecap="square" stroke-miterlimit="10" x1="434.438" y1="77.133" x2="412.562" y2="77.133"/>
<line fill="none" stroke="#ED3411" stroke-width="2" stroke-linecap="square" stroke-miterlimit="10" x1="434.438" y1="33.432" x2="434.438" y2="77.133"/>
<line fill="none" stroke="#ED3411" stroke-width="2" stroke-linecap="square" stroke-miterlimit="10" x1="456.313" y1="33.432" x2="434.438" y2="33.432"/>
<line fill="none" stroke="#ED3411" stroke-width="2" stroke-linecap="square" stroke-miterlimit="10" x1="456.313" y1="77.133" x2="456.313" y2="33.432"/>
<line fill="none" stroke="#ED3411" stroke-width="2" stroke-linecap="square" stroke-miterlimit="10" x1="478.169" y1="77.133" x2="456.313" y2="77.133"/>
<line fill="none" stroke="#ED3411" stroke-width="2" stroke-linecap="square" stroke-miterlimit="10" x1="478.169" y1="33.432" x2="478.169" y2="77.133"/>
<line fill="none" stroke="#ED3411" stroke-width="2" stroke-linecap="square" stroke-miterlimit="10" x1="500.045" y1="33.432" x2="478.169" y2="33.432"/>
<line fill="none" stroke="#ED3411" stroke-width="2" stroke-linecap="square" stroke-miterlimit="10" x1="500.045" y1="77.133" x2="500.045" y2="33.432"/>
<line fill="none" stroke="#ED3411" stroke-width="2" stroke-linecap="square" stroke-miterlimit="10" x1="521.92" y1="77.133" x2="500.045" y2="77.133"/>
<line fill="none" stroke="#ED3411" stroke-width="2" stroke-linecap="square" stroke-miterlimit="10" x1="521.92" y1="33.432" x2="521.92" y2="77.133"/>
<line fill="none" stroke="#ED3411" stroke-width="2" stroke-linecap="square" stroke-miterlimit="10" x1="543.775" y1="33.432" x2="521.92" y2="33.432"/>
<line fill="none" stroke="#ED3411" stroke-width="2" stroke-linecap="square" stroke-miterlimit="10" x1="543.775" y1="77.133" x2="543.775" y2="33.432"/>
<line fill="none" stroke="#ED3411" stroke-width="2" stroke-linecap="square" stroke-miterlimit="10" x1="565.651" y1="77.133" x2="543.775" y2="77.133"/>
<line fill="none" stroke="#ED3411" stroke-width="2" stroke-linecap="square" stroke-miterlimit="10" x1="565.651" y1="33.432" x2="565.651" y2="77.133"/>
<line fill="none" stroke="#ED3411" stroke-width="2" stroke-linecap="square" stroke-miterlimit="10" x1="587.527" y1="33.432" x2="565.651" y2="33.432"/>
<line fill="none" stroke="#ED3411" stroke-width="2" stroke-linecap="square" stroke-miterlimit="10" x1="587.527" y1="77.133" x2="587.527" y2="33.432"/>
<line fill="none" stroke="#ED3411" stroke-width="2" stroke-linecap="square" stroke-miterlimit="10" x1="609.383" y1="77.133" x2="587.527" y2="77.133"/>
<line fill="none" stroke="#ED3411" stroke-width="2" stroke-linecap="square" stroke-miterlimit="10" x1="609.383" y1="33.432" x2="609.383" y2="77.133"/>
<line fill="none" stroke="#ED3411" stroke-width="2" stroke-linecap="square" stroke-miterlimit="10" x1="631.259" y1="33.432" x2="609.383" y2="33.432"/>
<line fill="none" stroke="#ED3411" stroke-width="2" stroke-linecap="square" stroke-miterlimit="10" x1="631.259" y1="77.133" x2="631.259" y2="33.432"/>
<line fill="none" stroke="#ED3411" stroke-width="2" stroke-linecap="square" stroke-miterlimit="10" x1="653.134" y1="77.133" x2="631.259" y2="77.133"/>
<line fill="none" stroke="#ED3411" stroke-width="2" stroke-linecap="square" stroke-miterlimit="10" x1="653.134" y1="33.432" x2="653.134" y2="77.133"/>
<line fill="none" stroke="#ED3411" stroke-width="2" stroke-linecap="square" stroke-miterlimit="10" x1="674.989" y1="33.432" x2="653.134" y2="33.432"/>
<line fill="none" stroke="#ED3411" stroke-width="2" stroke-linecap="square" stroke-miterlimit="10" x1="674.989" y1="77.133" x2="674.989" y2="33.432"/>
<line fill="none" stroke="#ED3411" stroke-width="2" stroke-linecap="square" stroke-miterlimit="10" x1="718.741" y1="77.133" x2="674.989" y2="77.133"/>
<line fill="none" stroke="#ED3411" stroke-width="2" stroke-linecap="square" stroke-miterlimit="10" x1="215.741" y1="152.77" x2="193.866" y2="152.77"/>
<line fill="none" stroke="#ED3411" stroke-width="2" stroke-linecap="square" stroke-miterlimit="10" x1="215.741" y1="109.059" x2="215.741" y2="152.77"/>
<line fill="none" stroke="#ED3411" stroke-width="2" stroke-linecap="square" stroke-miterlimit="10" x1="259.482" y1="109.059" x2="215.741" y2="109.059"/>
<line fill="none" stroke="#ED3411" stroke-width="2" stroke-linecap="square" stroke-miterlimit="10" x1="259.482" y1="152.77" x2="259.482" y2="109.059"/>
<line fill="none" stroke="#ED3411" stroke-width="2" stroke-linecap="square" stroke-miterlimit="10" x1="346.955" y1="109.059" x2="346.955" y2="152.77"/>
<line fill="none" stroke="#ED3411" stroke-width="2" stroke-linecap="square" stroke-miterlimit="10" x1="565.651" y1="152.77" x2="565.651" y2="109.059"/>
<line fill="none" stroke="#ED3411" stroke-width="2" stroke-linecap="square" stroke-miterlimit="10" x1="653.134" y1="152.77" x2="565.651" y2="152.77"/>
<line fill="none" stroke="#ED3411" stroke-width="2" stroke-linecap="square" stroke-miterlimit="10" x1="303.214" y1="152.77" x2="303.214" y2="109.059"/>
<line fill="none" stroke="#ED3411" stroke-width="2" stroke-linecap="square" stroke-miterlimit="10" x1="346.955" y1="109.059" x2="303.214" y2="109.059"/>
<line fill="none" stroke="#ED3411" stroke-width="2" stroke-linecap="square" stroke-miterlimit="10" x1="434.438" y1="152.77" x2="346.955" y2="152.77"/>
<line fill="none" stroke="#ED3411" stroke-width="2" stroke-linecap="square" stroke-miterlimit="10" x1="434.438" y1="109.059" x2="434.438" y2="152.77"/>
<line fill="none" stroke="#ED3411" stroke-width="2" stroke-linecap="square" stroke-miterlimit="10" x1="565.651" y1="109.059" x2="434.438" y2="109.059"/>
<line fill="none" stroke="#ED3411" stroke-width="2" stroke-linecap="square" stroke-miterlimit="10" x1="653.134" y1="109.059" x2="653.134" y2="152.77"/>
<line fill="none" stroke="#ED3411" stroke-width="2" stroke-linecap="square" stroke-miterlimit="10" x1="696.865" y1="109.059" x2="653.134" y2="109.059"/>
<line fill="none" stroke="#ED3411" stroke-width="2" stroke-linecap="square" stroke-miterlimit="10" x1="696.865" y1="152.77" x2="696.865" y2="109.059"/>
<line fill="none" stroke="#ED3411" stroke-width="2" stroke-linecap="square" stroke-miterlimit="10" x1="718.741" y1="152.77" x2="696.865" y2="152.77"/>
<line fill="none" stroke="#ED3411" stroke-width="2" stroke-linecap="square" stroke-miterlimit="10" x1="303.214" y1="152.77" x2="259.482" y2="152.77"/>
<path fill="none" stroke="#ED3411" stroke-width="2" stroke-linecap="square" stroke-miterlimit="10" d="M215.741,307.089h-21.875
	 M215.741,328.944v-21.855 M237.607,328.944h-21.866 M237.607,328.944v-43.71 M281.348,285.234h-43.741 M281.348,328.944v-43.71
	 M325.09,328.944h-43.742 M456.313,328.944h-43.751 M456.313,285.234v43.71 M543.775,328.944H521.92 M543.775,285.234v43.71
	 M587.527,285.234h-43.752 M587.527,328.944v-43.71 M609.383,328.944h-21.855 M718.741,307.089h-21.876 M325.09,285.234v43.71
	 M368.831,285.234H325.09 M368.831,328.944v-43.71 M390.696,328.944h-21.865 M390.696,285.234v43.71 M412.562,285.234h-21.866
	 M412.562,328.944v-43.71 M478.169,285.234h-21.855 M478.169,328.944v-43.71 M500.045,328.944h-21.876 M500.045,285.234v43.71
	 M521.92,285.234h-21.875 M521.92,328.944v-43.71 M609.383,285.234v43.71 M631.259,285.234h-21.876 M631.259,328.944v-43.71
	 M674.989,328.944h-43.73 M674.989,285.234v43.71 M696.865,285.234h-21.876 M696.865,307.089v-21.854"/>
<path fill="none" stroke="#ED3411" stroke-width="2" stroke-linecap="square" stroke-miterlimit="10" d="M193.866,230.211h21.875
	 M215.741,230.211v-21.855 M215.741,208.356h21.866 M237.607,252.067v-43.711 M237.607,252.067h43.741 M281.348,252.067v-43.711
	 M281.348,208.356h43.742 M412.562,208.356h43.751 M456.313,208.356v43.711 M521.92,208.356h21.855 M543.775,208.356v43.711
	 M543.775,252.067h43.752 M587.527,252.067v-43.711 M587.527,208.356h21.855 M696.865,230.211h21.876 M325.09,208.356v43.711
	 M325.09,252.067h43.741 M368.831,252.067v-43.711 M368.831,208.356h21.865 M390.696,208.356v43.711 M390.696,252.067h21.866
	 M412.562,252.067v-43.711 M456.313,252.067h21.855 M478.169,252.067v-43.711 M478.169,208.356h21.876 M500.045,208.356v43.711
	 M500.045,252.067h21.875 M521.92,252.067v-43.711 M609.383,208.356v43.711 M609.383,252.067h21.876 M631.259,252.067v-43.711
	 M631.259,208.356h43.73 M674.989,208.356v43.711 M674.989,252.067h21.876 M696.865,252.067v-21.855"/>
<path d="M109.048,52.917c-0.596-2.16-1.731-4.44-4.768-4.44c-3.065,0-5.676,2.448-5.676,8.112s2.611,8.112,5.676,8.112
	c2.895,0,4.229-2.232,4.768-4.44l2.157,0.48c-0.625,3.072-2.951,5.568-6.924,5.568c-4.598,0-8.003-3.576-8.003-9.72
	s3.406-9.72,8.003-9.72c3.916,0,6.187,2.448,6.839,5.616L109.048,52.917z"/>
<path d="M116.625,65.926h-2.214V47.253h2.214V65.926z"/>
<path d="M119.69,59.302c0-4.968,2.781-7.008,6.271-7.008s6.272,2.04,6.272,7.008c0,4.968-2.781,7.008-6.272,7.008
	S119.69,64.27,119.69,59.302z M130.02,59.302c0-2.256-0.653-5.424-4.059-5.424c-3.405,0-4.058,3.168-4.058,5.424
	s0.653,5.424,4.058,5.424C129.367,64.726,130.02,61.558,130.02,59.302z"/>
<path d="M144.267,56.374c-0.54-1.224-1.391-2.544-3.15-2.496c-3.405,0-4.058,3.168-4.058,5.424s0.653,5.424,4.058,5.424
	c1.901-0.072,2.98-1.368,3.661-2.664l1.788,0.672c-0.908,2.016-2.923,3.576-5.449,3.576c-3.491,0-6.271-2.04-6.271-7.008
	c0-4.968,2.781-7.008,6.271-7.008c2.583,0,4.172,1.368,5.023,3.36L144.267,56.374z"/>
<path d="M151.844,58.822l5.818-6.144h2.469l-4.313,4.536l4.966,8.712h-2.384l-4.001-7.2l-2.554,2.664v4.536h-2.214V47.253h2.214
	V58.822z"/>
<path d="M112.208,128.253c6.414,0,9.308,3.912,9.308,9.24c0,5.952-2.895,9.432-9.904,9.432h-4.853v-18.672H112.208z
	 M109.086,145.246h2.186c5.505-0.048,7.918-2.4,7.918-7.824c0-4.776-2.271-7.44-6.84-7.488h-3.264V145.246z"/>
<path d="M133.266,146.926l-0.227-1.68c-1.277,1.056-2.696,2.064-4.541,2.064c-2.412,0-4.342-1.704-4.342-3.792
	c0-3.792,4.711-4.608,8.173-5.4l0.709-0.168v-0.744c0-1.512-1.221-2.328-2.98-2.328c-1.731,0-2.923,0.96-3.831,2.088l-1.561-0.984
	c1.305-1.584,3.008-2.688,5.392-2.688c2.128,0,5.193,1.104,5.193,4.128v6.576c0.028,0.984-0.028,1.992,0.426,2.928H133.266z
	 M132.159,139.702c-2.1,0.528-5.931,1.248-5.931,3.624c0,1.104,1.021,2.208,2.355,2.208c1.759,0,3.377-1.032,4.456-2.16v-3.888
	L132.159,139.702z"/>
<path d="M141.836,133.678h3.547v1.584h-3.547v8.328c0,1.296-0.029,2.136,1.788,2.136c0.625,0,1.22-0.048,1.76-0.168v1.368
	c-0.709,0.216-1.447,0.384-2.214,0.384c-3.746,0-3.547-2.136-3.547-4.56v-7.488h-2.384v-1.584h2.384v-4.296h2.214V133.678z"/>
<path d="M156.055,146.926l-0.227-1.68c-1.277,1.056-2.696,2.064-4.541,2.064c-2.412,0-4.342-1.704-4.342-3.792
	c0-3.792,4.711-4.608,8.173-5.4l0.709-0.168v-0.744c0-1.512-1.221-2.328-2.98-2.328c-1.731,0-2.923,0.96-3.831,2.088l-1.561-0.984
	c1.305-1.584,3.008-2.688,5.392-2.688c2.128,0,5.193,1.104,5.193,4.128v6.576c0.028,0.984-0.028,1.992,0.426,2.928H156.055z
	 M154.948,139.702c-2.1,0.528-5.931,1.248-5.931,3.624c0,1.104,1.021,2.208,2.355,2.208c1.759,0,3.377-1.032,4.456-2.16v-3.888
	L154.948,139.702z"/>
<path d="M28.086,223.926H25.76v-18.672h3.859l4.825,15.384h0.085l4.739-15.384h3.945v18.672h-2.327v-16.92h-0.057l-5.392,16.92
	h-1.901l-5.392-16.92h-0.057V223.926z"/>
<path d="M55.417,223.926l-0.227-1.68c-1.277,1.056-2.696,2.064-4.541,2.064c-2.412,0-4.342-1.704-4.342-3.792
	c0-3.792,4.711-4.608,8.173-5.4l0.709-0.168v-0.744c0-1.512-1.221-2.328-2.98-2.328c-1.731,0-2.923,0.96-3.831,2.088l-1.561-0.984
	c1.305-1.584,3.008-2.688,5.392-2.688c2.128,0,5.193,1.104,5.193,4.128v6.576c0.028,0.984-0.028,1.992,0.426,2.928H55.417z
	 M54.31,216.702c-2.1,0.528-5.931,1.248-5.931,3.624c0,1.104,1.021,2.208,2.355,2.208c1.759,0,3.377-1.032,4.456-2.16v-3.888
	L54.31,216.702z"/>
<path d="M63.079,223.926h-2.214v-13.248h2.214v1.368c1.305-0.888,2.525-1.752,4.313-1.752c2.214,0,4.001,1.032,4.001,4.488v9.144
	H69.18v-8.664c0-1.392,0.284-3.432-2.072-3.432c-1.362,0-3.15,1.128-4.03,2.016V223.926z"/>
<path d="M83.824,214.374c-0.54-1.224-1.391-2.544-3.15-2.496c-3.405,0-4.058,3.168-4.058,5.424s0.653,5.424,4.058,5.424
	c1.901-0.072,2.98-1.368,3.661-2.664l1.788,0.672c-0.908,2.016-2.923,3.576-5.449,3.576c-3.491,0-6.271-2.04-6.271-7.008
	c0-4.968,2.781-7.008,6.271-7.008c2.583,0,4.172,1.368,5.023,3.36L83.824,214.374z"/>
<path d="M91.344,212.046c1.305-0.888,2.525-1.752,4.313-1.752c2.214,0,4.001,1.032,4.001,4.488v9.144h-2.213v-8.664
	c0-1.392,0.284-3.432-2.072-3.432c-1.362,0-3.15,1.128-4.03,2.016v10.08H89.13v-18.672h2.214V212.046z"/>
<path d="M104.995,217.614c0,3.792,1.901,5.112,4.171,5.112c1.646,0,3.037-1.128,3.832-2.28l1.589,0.888
	c-0.851,1.704-2.951,2.976-5.647,2.976c-3.491,0-6.271-2.04-6.271-7.008c0-4.968,2.781-7.008,6.271-7.008
	c4.513,0,5.818,4.08,5.506,7.32H104.995z M112.118,216.03c0.057-1.704-1.021-4.152-3.349-4.152c-2.498,0-3.689,2.28-3.718,4.152
	H112.118z"/>
<path d="M126.336,213.63c-0.88-1.104-1.93-1.752-3.576-1.752c-1.447,0-2.81,0.624-2.81,1.968c0,3.24,8.259,1.824,8.259,6.288
	c0,2.592-2.186,4.176-5.137,4.176c-2.526,0-4.569-0.936-5.846-2.784l1.759-0.936c0.852,1.368,2.214,2.136,4.087,2.136
	c1.618,0,3.065-0.744,3.065-2.256c0-3.336-8.259-1.752-8.259-6.504c0-2.28,2.214-3.672,4.796-3.672c2.185,0,4.001,0.768,5.222,2.304
	L126.336,213.63z"/>
<path d="M134.339,210.678h3.547v1.584h-3.547v8.328c0,1.296-0.029,2.136,1.788,2.136c0.625,0,1.22-0.048,1.76-0.168v1.368
	c-0.709,0.216-1.447,0.384-2.214,0.384c-3.746,0-3.547-2.136-3.547-4.56v-7.488h-2.384v-1.584h2.384v-4.296h2.214V210.678z"/>
<path d="M141.746,217.614c0,3.792,1.901,5.112,4.171,5.112c1.646,0,3.037-1.128,3.832-2.28l1.589,0.888
	c-0.851,1.704-2.951,2.976-5.647,2.976c-3.491,0-6.271-2.04-6.271-7.008c0-4.968,2.781-7.008,6.271-7.008
	c4.513,0,5.818,4.08,5.506,7.32H141.746z M148.869,216.03c0.057-1.704-1.021-4.152-3.349-4.152c-2.498,0-3.689,2.28-3.718,4.152
	H148.869z"/>
<path d="M156.617,213.534h0.057c0.88-1.584,2.015-3.048,4.342-3.048h0.851v1.704c-2.895-0.336-4.398,2.304-5.25,4.224v7.512h-2.213
	v-13.248h2.213V213.534z"/>
<path d="M26.256,239.478c-1.164-1.716-1.703-3.372-1.703-5.34c0-1.968,0.54-3.624,1.703-5.34l0.879,0.312
	c-0.937,1.584-1.504,3.24-1.504,5.028s0.567,3.444,1.504,5.028L26.256,239.478z"/>
<path d="M32.911,238.326l-0.113-0.84c-0.639,0.528-1.348,1.032-2.271,1.032c-1.206,0-2.171-0.852-2.171-1.896
	c0-1.896,2.355-2.304,4.086-2.7l0.355-0.084v-0.372c0-0.756-0.61-1.164-1.49-1.164c-0.865,0-1.461,0.48-1.916,1.044l-0.78-0.492
	c0.653-0.792,1.504-1.344,2.696-1.344c1.064,0,2.597,0.552,2.597,2.064v3.288c0.015,0.492-0.014,0.996,0.213,1.464H32.911z
	 M32.358,234.714c-1.05,0.264-2.966,0.624-2.966,1.812c0,0.552,0.511,1.104,1.178,1.104c0.88,0,1.688-0.516,2.228-1.08v-1.944
	L32.358,234.714z"/>
<path d="M40.006,233.178c-0.44-0.552-0.965-0.876-1.788-0.876c-0.724,0-1.405,0.312-1.405,0.984c0,1.62,4.129,0.912,4.129,3.144
	c0,1.296-1.092,2.088-2.568,2.088c-1.263,0-2.284-0.468-2.923-1.392l0.88-0.468c0.425,0.684,1.106,1.068,2.043,1.068
	c0.809,0,1.533-0.372,1.533-1.128c0-1.668-4.129-0.876-4.129-3.252c0-1.14,1.107-1.836,2.398-1.836c1.093,0,2.001,0.384,2.611,1.152
	L40.006,233.178z"/>
<path d="M47.668,240.378h-1.106v-8.676h1.106v0.684c0.511-0.456,1.207-0.876,1.958-0.876c1.348,0,2.909,1.032,2.909,3.636
	c0,2.544-1.802,3.372-2.866,3.372c-0.866,0-1.476-0.396-2.001-0.948V240.378z M47.668,236.466c0.312,0.564,1.064,1.236,1.845,1.236
	c0.767,0,1.859-0.636,1.859-2.58c0-0.996-0.326-2.796-1.873-2.796c-0.851,0-1.49,0.492-1.831,1.068V236.466z"/>
<path d="M55.004,235.169c0,1.896,0.951,2.556,2.086,2.556c0.823,0,1.518-0.564,1.916-1.14l0.794,0.444
	c-0.426,0.852-1.476,1.488-2.824,1.488c-1.745,0-3.136-1.02-3.136-3.504s1.391-3.504,3.136-3.504c2.256,0,2.909,2.04,2.753,3.66
	H55.004z M58.566,234.377c0.028-0.852-0.511-2.076-1.674-2.076c-1.249,0-1.845,1.14-1.859,2.076H58.566z"/>
<path d="M62.439,233.13h0.029c0.439-0.792,1.007-1.524,2.171-1.524h0.426v0.852c-1.448-0.168-2.2,1.152-2.625,2.112v3.756h-1.106
	v-6.624h1.106V233.13z"/>
<path d="M76.644,231.738c-0.312-1.092-0.894-2.136-2.512-2.136c-1.533,0-2.838,1.224-2.838,4.056s1.305,4.056,2.838,4.056
	c2.043,0,2.583-1.608,2.469-3.024h-2.242v-0.84h3.405v4.476h-0.993v-0.912c-0.596,0.696-1.547,1.104-2.639,1.104
	c-2.299,0-4.001-1.788-4.001-4.86c0-3.072,1.703-4.86,4.001-4.86c2.029,0,3.264,1.176,3.632,2.712L76.644,231.738z"/>
<path d="M81.298,238.326h-1.433v-1.404h1.433V238.326z"/>
<path d="M93.499,229.83h-4.824v3.18h3.448v0.84h-3.448v3.636h5.151v0.84h-6.314v-9.336h5.988V229.83z"/>
<path d="M97.302,238.326h-1.433v-1.404h1.433V238.326z"/>
<path d="M110.044,229.83h-2.965v8.496h-1.164v-8.496h-2.966v-0.84h7.095V229.83z"/>
<path d="M112.229,232.386c0.653-0.444,1.263-0.876,2.157-0.876c1.106,0,2,0.516,2,2.244v4.572h-1.107v-4.332
	c0-0.696,0.142-1.716-1.036-1.716c-0.681,0-1.575,0.564-2.015,1.008v5.04h-1.106v-9.336h1.106V232.386z"/>
<path d="M117.891,235.014c0-2.484,1.391-3.504,3.136-3.504c1.746,0,3.136,1.02,3.136,3.504s-1.391,3.504-3.136,3.504
	C119.282,238.518,117.891,237.498,117.891,235.014z M123.056,235.014c0-1.128-0.327-2.712-2.029-2.712s-2.029,1.584-2.029,2.712
	s0.326,2.712,2.029,2.712S123.056,236.146,123.056,235.014z"/>
<path d="M126.774,238.326h-1.106v-6.624h1.106v0.588c0.681-0.468,1.263-0.78,2.171-0.78c0.837,0,1.476,0.3,1.887,0.9
	c0.724-0.492,1.419-0.888,2.398-0.9c1.107,0,2,0.516,2,2.244v4.572h-1.106v-4.332c0-0.696,0.142-1.716-1.036-1.716
	c-0.809-0.012-1.618,0.456-2.086,0.876v5.172h-1.106v-4.332c0-0.696,0.142-1.716-1.036-1.716c-0.951,0.024-1.518,0.444-2.086,0.876
	V238.326z"/>
<path d="M141.304,238.326l-0.113-0.84c-0.639,0.528-1.348,1.032-2.271,1.032c-1.206,0-2.171-0.852-2.171-1.896
	c0-1.896,2.355-2.304,4.086-2.7l0.355-0.084v-0.372c0-0.756-0.61-1.164-1.49-1.164c-0.865,0-1.461,0.48-1.916,1.044l-0.78-0.492
	c0.653-0.792,1.504-1.344,2.696-1.344c1.064,0,2.597,0.552,2.597,2.064v3.288c0.014,0.492-0.015,0.996,0.212,1.464H137.304z
	 M140.751,234.714c-1.05,0.264-2.966,0.624-2.966,1.812c0,0.552,0.511,1.104,1.178,1.104c0.88,0,1.688-0.516,2.228-1.08v-1.944
	L140.751,234.714z"/>
<path d="M148.399,233.178c-0.44-0.552-0.965-0.876-1.788-0.876c-0.724,0-1.405,0.312-1.405,0.984c0,1.62,4.129,0.912,4.129,3.144
	c0,1.296-1.092,2.088-2.568,2.088c-1.263,0-2.284-0.468-2.923-1.392l0.88-0.468c0.425,0.684,1.106,1.068,2.043,1.068
	c0.809,0,1.533-0.372,1.533-1.128c0-1.668-4.129-0.876-4.129-3.252c0-1.14,1.107-1.836,2.398-1.836c1.093,0,2.001,0.384,2.611,1.152
	L148.399,233.178z"/>
<path d="M150.542,239.166c0.937-1.584,1.504-3.24,1.504-5.028s-0.568-3.444-1.504-5.028l0.88-0.312
	c1.164,1.716,1.703,3.372,1.703,5.34c0,1.968-0.539,3.624-1.703,5.34L150.542,239.166z"/>
<path d="M28.086,300.926H25.76v-18.672h3.859l4.825,15.384h0.085l4.739-15.384h3.945v18.672h-2.327v-16.92h-0.057l-5.392,16.92
	h-1.901l-5.392-16.92h-0.057V300.926z"/>
<path d="M55.417,300.926l-0.227-1.68c-1.277,1.056-2.696,2.063-4.541,2.063c-2.412,0-4.342-1.704-4.342-3.792
	c0-3.792,4.711-4.608,8.173-5.4l0.709-0.168v-0.744c0-1.512-1.221-2.328-2.98-2.328c-1.731,0-2.923,0.96-3.831,2.088l-1.561-0.984
	c1.305-1.584,3.008-2.688,5.392-2.688c2.128,0,5.193,1.104,5.193,4.128v6.576c0.028,0.984-0.028,1.992,0.426,2.928H55.417z
	 M54.31,293.702c-2.1,0.528-5.931,1.248-5.931,3.625c0,1.104,1.021,2.207,2.355,2.207c1.759,0,3.377-1.031,4.456-2.16v-3.887
	L54.31,293.702z"/>
<path d="M63.079,300.926h-2.214v-13.248h2.214v1.368c1.305-0.888,2.525-1.752,4.313-1.752c2.214,0,4.001,1.032,4.001,4.488v9.144
	H69.18v-8.664c0-1.392,0.284-3.432-2.072-3.432c-1.362,0-3.15,1.128-4.03,2.016V300.926z"/>
<path d="M83.824,291.374c-0.54-1.224-1.391-2.544-3.15-2.496c-3.405,0-4.058,3.168-4.058,5.424s0.653,5.424,4.058,5.424
	c1.901-0.071,2.98-1.368,3.661-2.664l1.788,0.673c-0.908,2.016-2.923,3.575-5.449,3.575c-3.491,0-6.271-2.04-6.271-7.008
	c0-4.968,2.781-7.008,6.271-7.008c2.583,0,4.172,1.368,5.023,3.36L83.824,291.374z"/>
<path d="M91.344,289.046c1.305-0.888,2.525-1.752,4.313-1.752c2.214,0,4.001,1.032,4.001,4.488v9.144h-2.213v-8.664
	c0-1.392,0.284-3.432-2.072-3.432c-1.362,0-3.15,1.128-4.03,2.016v10.08H89.13v-18.672h2.214V289.046z"/>
<path d="M104.995,294.614c0,3.792,1.901,5.112,4.171,5.112c1.646,0,3.037-1.128,3.832-2.28l1.589,0.889
	c-0.851,1.703-2.951,2.976-5.647,2.976c-3.491,0-6.271-2.04-6.271-7.008c0-4.968,2.781-7.008,6.271-7.008
	c4.513,0,5.818,4.08,5.506,7.32H104.995z M112.118,293.03c0.057-1.704-1.021-4.152-3.349-4.152c-2.498,0-3.689,2.28-3.718,4.152
	H112.118z"/>
<path d="M126.336,290.63c-0.88-1.104-1.93-1.752-3.576-1.752c-1.447,0-2.81,0.624-2.81,1.968c0,3.24,8.259,1.824,8.259,6.288
	c0,2.592-2.186,4.176-5.137,4.176c-2.526,0-4.569-0.937-5.846-2.784l1.759-0.936c0.852,1.368,2.214,2.136,4.087,2.136
	c1.618,0,3.065-0.743,3.065-2.256c0-3.336-8.259-1.752-8.259-6.504c0-2.28,2.214-3.672,4.796-3.672c2.185,0,4.001,0.768,5.222,2.304
	L126.336,290.63z"/>
<path d="M134.339,287.678h3.547v1.584h-3.547v8.328c0,1.296-0.029,2.136,1.788,2.136c0.625,0,1.22-0.048,1.76-0.168v1.368
	c-0.709,0.216-1.447,0.384-2.214,0.384c-3.746,0-3.547-2.136-3.547-4.56v-7.488h-2.384v-1.584h2.384v-4.296h2.214V287.678z"/>
<path d="M141.746,294.614c0,3.792,1.901,5.112,4.171,5.112c1.646,0,3.037-1.128,3.832-2.28l1.589,0.889
	c-0.851,1.703-2.951,2.976-5.647,2.976c-3.491,0-6.271-2.04-6.271-7.008c0-4.968,2.781-7.008,6.271-7.008
	c4.513,0,5.818,4.08,5.506,7.32H141.746z M148.869,293.03c0.057-1.704-1.021-4.152-3.349-4.152c-2.498,0-3.689,2.28-3.718,4.152
	H148.869z"/>
<path d="M156.617,290.534h0.057c0.88-1.584,2.015-3.048,4.342-3.048h0.851v1.704c-2.895-0.336-4.398,2.304-5.25,4.224v7.512h-2.213
	v-13.248h2.213V290.534z"/>
<path d="M26.256,316.478c-1.164-1.716-1.703-3.372-1.703-5.34s0.54-3.624,1.703-5.34l0.879,0.312
	c-0.937,1.584-1.504,3.24-1.504,5.028s0.567,3.444,1.504,5.028L26.256,316.478z"/>
<path d="M32.911,315.326l-0.113-0.84c-0.639,0.527-1.348,1.031-2.271,1.031c-1.206,0-2.171-0.852-2.171-1.896
	c0-1.896,2.355-2.303,4.086-2.699l0.355-0.084v-0.372c0-0.757-0.61-1.164-1.49-1.164c-0.865,0-1.461,0.479-1.916,1.044l-0.78-0.492
	c0.653-0.792,1.504-1.344,2.696-1.344c1.064,0,2.597,0.552,2.597,2.064v3.287c0.015,0.492-0.014,0.996,0.213,1.465H32.911z
	 M32.358,311.714c-1.05,0.264-2.966,0.624-2.966,1.812c0,0.553,0.511,1.104,1.178,1.104c0.88,0,1.688-0.517,2.228-1.08v-1.944
	L32.358,311.714z"/>
<path d="M40.006,310.178c-0.44-0.553-0.965-0.876-1.788-0.876c-0.724,0-1.405,0.312-1.405,0.983c0,1.621,4.129,0.912,4.129,3.145
	c0,1.296-1.092,2.088-2.568,2.088c-1.263,0-2.284-0.468-2.923-1.393l0.88-0.467c0.425,0.684,1.106,1.067,2.043,1.067
	c0.809,0,1.533-0.372,1.533-1.128c0-1.668-4.129-0.876-4.129-3.252c0-1.141,1.107-1.836,2.398-1.836
	c1.093,0,2.001,0.384,2.611,1.152L40.006,310.178z"/>
<path d="M47.668,317.378h-1.106v-8.677h1.106v0.685c0.511-0.456,1.207-0.876,1.958-0.876c1.348,0,2.909,1.031,2.909,3.636
	c0,2.544-1.802,3.372-2.866,3.372c-0.866,0-1.476-0.396-2.001-0.947V317.378z M47.668,313.466c0.312,0.563,1.064,1.235,1.845,1.235
	c0.767,0,1.859-0.636,1.859-2.58c0-0.996-0.326-2.795-1.873-2.795c-0.851,0-1.49,0.492-1.831,1.067V313.466z"/>
<path d="M55.004,312.17c0,1.896,0.951,2.556,2.086,2.556c0.823,0,1.518-0.563,1.916-1.14l0.794,0.443
	c-0.426,0.853-1.476,1.488-2.824,1.488c-1.745,0-3.136-1.02-3.136-3.504s1.391-3.504,3.136-3.504c2.256,0,2.909,2.04,2.753,3.66
	H55.004z M58.566,311.377c0.028-0.852-0.511-2.075-1.674-2.075c-1.249,0-1.845,1.14-1.859,2.075H58.566z"/>
<path d="M62.439,310.13h0.029c0.439-0.792,1.007-1.524,2.171-1.524h0.426v0.852c-1.448-0.168-2.2,1.152-2.625,2.113v3.756h-1.106
	v-6.625h1.106V310.13z"/>
<path d="M71.535,315.326h-1.164v-9.336h1.164V315.326z"/>
<path d="M79.283,306.83h-4.824v3.18h3.448v0.84h-3.448v3.637h5.151v0.84h-6.314v-9.336h5.988V306.83z"/>
<path d="M87.201,306.83h-4.824v3.18h3.448v0.84h-3.448v3.637h5.151v0.84h-6.314v-9.336h5.988V306.83z"/>
<path d="M95.118,306.83h-4.824v3.18h3.448v0.84h-3.448v3.637h5.151v0.84H89.13v-9.336h5.988V306.83z"/>
<path d="M107.875,312.961c0,1.669-1.703,2.557-3.505,2.557c-1.831,0-3.562-0.816-3.562-2.531c0-1.369,0.908-2.064,2.256-2.641
	c-1.079-0.553-1.831-1.104-1.831-2.244c0-1.477,1.561-2.304,3.165-2.304c1.546,0,3.122,0.864,3.122,2.292
	c0,1.115-0.866,1.812-1.987,2.256C106.896,310.897,107.875,311.582,107.875,312.961z M101.915,312.89
	c0,1.176,1.121,1.788,2.398,1.788c1.292,0,2.455-0.576,2.455-1.775c0-1.248-1.391-1.765-2.611-2.089
	C103.022,311.149,101.915,311.75,101.915,312.89z M106.413,308.149c0-0.972-0.851-1.512-1.958-1.512
	c-1.007,0-2.114,0.468-2.114,1.44c0,0.947,1.107,1.535,2.058,1.824C105.406,309.662,106.413,309.146,106.413,308.149z"/>
<path d="M115.963,310.658c0,2.063-0.539,4.859-3.448,4.859c-2.909,0-3.448-2.796-3.448-4.859c0-2.064,0.539-4.86,3.448-4.86
	C115.424,305.798,115.963,308.594,115.963,310.658z M110.145,310.658c0,1.487,0.199,4.02,2.37,4.02c2.171,0,2.37-2.532,2.37-4.02
	c0-1.488-0.199-4.021-2.37-4.021C110.344,306.638,110.145,309.17,110.145,310.658z"/>
<path d="M123.881,314.486v0.84h-6.399v-0.853c1.604-3.408,5.236-3.744,5.236-6.048c0-0.924-0.695-1.788-1.859-1.788
	c-1.234,0-2.043,0.983-2.213,1.933l-1.008-0.24c0.341-1.416,1.519-2.532,3.306-2.532c1.76,0,2.938,1.14,2.938,2.592
	c0,2.796-4.257,3.456-5.236,6.097H123.881z"/>
<path d="M127.527,315.326h-1.433v-1.404h1.433V315.326z"/>
<path d="M131.643,310.886v-0.912l0.922,0.024c1.632,0,2.355-0.732,2.355-1.681c0-1.044-0.752-1.68-1.987-1.68
	c-0.965,0-1.603,0.517-2.114,1.14l-0.837-0.492c0.766-0.888,1.845-1.487,3.164-1.487c1.816,0,2.881,1.104,2.881,2.399
	c0,1.092-0.525,1.692-1.646,2.185c1.277,0.36,1.944,1.224,1.944,2.34c0,1.728-1.405,2.796-3.406,2.796
	c-1.476,0-2.667-0.66-3.349-1.752l0.894-0.456c0.582,0.792,1.291,1.368,2.469,1.368c1.334,0,2.228-0.684,2.228-1.836
	c0-1.523-1.164-2.016-2.795-2.016L131.643,310.886z"/>
<path d="M137.587,316.166c0.937-1.584,1.504-3.24,1.504-5.028s-0.568-3.444-1.504-5.028l0.88-0.312
	c1.164,1.716,1.703,3.372,1.703,5.34s-0.539,3.624-1.703,5.34L137.587,316.166z"/>
</svg>
